# xmcd CD database file
#
# Track frame offsets:
#	150
#	14180
#	33283
#	54164
#	60426
#	74056
#	88530
#	100179
#	121887
#
# Disc length: 1855 seconds
#
# Revision: 1
# Processed by: cddbd v1.5.2PL0 Copyright (c) Steve Scherf et al.
# Submitted via: CDex 1.51
#
DISCID=73073d09
DTITLE=Bermuda Triangle - Bermuda Triangle
DYEAR=1977
DGENRE=Folk
TTITLE0=Nights in White Satin
TTITLE1=Right Track
TTITLE2=Dream On
TTITLE3=Lark in the Morning - Swallow Tail
TTITLE4=Free Ride
TTITLE5=Standing Together
TTITLE6=Louisiana
TTITLE7=Night Train
TTITLE8=Wind
EXTD=The Tracks On CD is 9 But Back Cover Says 11 (?) \nSomething must be very wrong with this CD YEAR: 1977
EXTT0=
EXTT1=
EXTT2=
EXTT3=
EXTT4=
EXTT5=
EXTT6=
EXTT7=
EXTT8=
PLAYORDER=
